<svg xmlns="http://www.w3.org/2000/svg" viewBox="0 0 24 24" width="24" height="24">
  <path d="M12 2C6.48 2 2 6.48 2 12s4.48 10 10 10 10-4.48 10-10S17.52 2 12 2z" fill="#4285F4"/>
  <path d="M12 7c-2.76 0-5 2.24-5 5s2.24 5 5 5 5-2.24 5-5-2.24-5-5-5zm0 8.5c-1.93 0-3.5-1.57-3.5-3.5S10.07 8.5 12 8.5s3.5 1.57 3.5 3.5-1.57 3.5-3.5 3.5z" fill="white"/>
  <rect x="11" y="4" width="2" height="4" rx="1" fill="white"/>
  <rect x="11" y="16" width="2" height="4" rx="1" fill="white"/>
  <rect x="4" y="11" width="4" height="2" rx="1" fill="white"/>
  <rect x="16" y="11" width="4" height="2" rx="1" fill="white"/>
</svg>
