<svg xmlns="http://www.w3.org/2000/svg" viewBox="0 0 432.071 445.383" width="24" height="24">
  <g>
    <path d="M323.205,324.227c2.833-23.601,1.984-27.062,19.563-23.239l4.463,0.392c13.517,0.615,31.199-2.174,41.587-7c22.362-10.376,35.622-27.7,13.572-23.148-50.297,10.376-53.755-6.655-53.755-6.655,53.111-78.803,75.313-178.836,56.149-203.322-52.27-66.808-142.752-35.2-144.262-34.38l-0.486,0.087c-9.938-2.062-21.06-3.294-33.554-3.496-22.761-0.374-40.032,5.967-53.133,15.904,0,0-161.408-66.498-153.899,83.628,1.597,31.936,45.777,241.655,98.47,178.31,19.259-23.163,37.871-42.748,37.871-42.748,9.243,6.14,20.308,9.272,31.908,8.147l0.901-0.765c-0.28,2.876-0.152,5.689,0.361,9.019-13.575,15.167-9.586,17.83-36.723,23.416-27.459,5.659-11.326,15.734-0.797,18.367,12.768,3.193,42.305,7.716,62.268-20.224l-0.795,3.188c5.325,4.26,4.965,30.619,5.72,49.452,0.756,18.834,2.017,36.409,6.856,46.771,4.839,10.36,10.545,35.477,55.277,28.222,37.33-6.057,65.632-14.69,68.654-96.22" fill="#336791"/>
    <path d="M402.395,271.23c-50.302,10.376-53.76-6.655-53.76-6.655,53.111-78.808,75.313-178.843,56.153-203.326-52.27-66.808-142.752-35.2-144.262-34.38l-0.486,0.087c-9.938-2.063-21.06-3.292-33.56-3.496-22.761-0.373-40.026,5.967-53.127,15.902,0,0-161.411-66.495-153.904,83.63,1.597,31.938,45.776,241.657,98.471,178.312,19.26-23.163,37.869-42.748,37.869-42.748,9.243,6.14,20.308,9.272,31.908,8.147l0.901-0.765c-0.28,2.876-0.152,5.689,0.361,9.019-13.575,15.167-9.586,17.83-36.723,23.416-27.459,5.659-11.328,15.734-0.797,18.367,12.768,3.193,42.307,7.716,62.266-20.224l-0.795,3.188c5.325,4.26,9.258,27.98,8.713,49.452-0.545,21.471-1.132,36.238,3.706,47.725,4.842,11.488,10.548,35.477,55.28,28.222,37.33-6.057,56.78-21.827,59.345-48.134,1.821-18.703,5.944-15.942,6.201-32.588l3.302-9.84c3.804-31.726,0.357-41.965,22.467-37.202l4.463,0.392c13.517,0.615,31.199-2.174,41.587-7,22.362-10.376,35.622-27.7,13.572-23.148z" fill="#fff"/>
    <path d="M215.866,286.484c-1.385,49.516,0.348,99.377,5.193,111.495,4.848,12.118,15.223,35.688,50.122,28.222,29.188-6.244,40.031-18.765,43.583-42.052,1.938-12.706,5.597-48.753,6.52-68.586" fill="none" stroke="#336791" strokeWidth="12.4651" strokeLinecap="round" strokeLinejoin="round"/>
    <path d="M345.04,283.07c0.399,23.212-1.248,36.37-1.248,49.793,0,9.54,12.874,42.487,13.488,54.393,0.611,11.903-2.682,32.259-2.682,32.259" fill="none" stroke="#336791" strokeWidth="12.4651" strokeLinecap="round" strokeLinejoin="bevel"/>
    <path d="M122.281,374.948c3.236-29.304,7.105-50.882,2.249-66.927-4.856-16.044-25.663-25.095-41.471-36.371-10.399-7.422-19.612-19.622-22.611-36.861-2.455-14.111,2.455-29.721,4.29-44.239,1.167-9.244-1.674-19.504-4.068-32.207C52.7,108.5,44.812,65.089,82.986,33.882c39.677-32.39,82.811-23.647,101.952-20.209" fill="none" stroke="#336791" strokeWidth="12.4651" strokeLinecap="round" strokeLinejoin="round"/>
    <path d="M119.282,286.1c-2.793,4.147-2.032,22.918,2.156,37.821" fill="none" stroke="#336791" strokeWidth="12.4651" strokeLinecap="round" strokeLinejoin="round"/>
    <path d="M233.318,38.832c0,0-53.793-15.859-73.276,21.723-14.13,27.252,15.467,88.068,24.267,110.981,5.07,13.209,3.456,27.037-5.544,33.772" fill="none" stroke="#336791" strokeWidth="12.4651" strokeLinecap="round" strokeLinejoin="round"/>
    <path d="M302.146,26.507c0,0,26.85-12.823,48.756,15.96,10.418,13.696,3.051,74.91-12.606,120.042-7.665,22.097-13.413,48.265,0.377,63.167,9.553,10.33,33.374,17.868,50.284,13.211" fill="none" stroke="#336791" strokeWidth="12.4651" strokeLinecap="round" strokeLinejoin="round"/>
    <path d="M233.318,38.832c13.834-4.108,28.464-6.41,43.487-5.908,25.517,0.853,41.592,10.171,51.354,20.58" fill="none" stroke="#336791" strokeWidth="12.4651" strokeLinecap="round" strokeLinejoin="round"/>
    <path d="M322.043,83.772c-12.556-11.148-28.281-18.625-50.655-18.625" fill="none" stroke="#336791" strokeWidth="12.4651" strokeLinecap="round" strokeLinejoin="round"/>
    <path d="M185.228,205.308c0,18.377,4.118,31.678,10.212,40.478" fill="none" stroke="#336791" strokeWidth="12.4651" strokeLinecap="round" strokeLinejoin="round"/>
    <ellipse cx="243.395" cy="114.525" rx="22.361" ry="23.402" fill="#fff" stroke="#336791" strokeWidth="8.3101"/>
    <ellipse cx="246.136" cy="110.963" rx="7.071" ry="8.605" fill="#336791"/>
    <ellipse cx="318.428" cy="114.525" rx="22.361" ry="23.402" fill="#fff" stroke="#336791" strokeWidth="8.3101"/>
    <ellipse cx="321.169" cy="110.963" rx="7.071" ry="8.605" fill="#336791"/>
  </g>
</svg>
